<?xml version="1.0"?>
<svg xmlns="http://www.w3.org/2000/svg" xmlns:xlink="http://www.w3.org/1999/xlink" xmlns:svgjs="http://svgjs.com/svgjs" version="1.1" width="512" height="512" x="0" y="0" viewBox="0 0 512 512" style="enable-background:new 0 0 512 512" xml:space="preserve" class=""><g><g xmlns="http://www.w3.org/2000/svg"><g><g><g><path d="m443 108.728-1 3.266v310.213l1 3.065c36.173-42.695 58-97.93 58-158.272s-21.827-115.576-58-158.272z" fill="#494949" data-original="#8d9cdb" class=""/></g><path d="m50.3 264.913c0-1.606 1.307-2.913 2.913-2.913h16.787v-153l-1-.272c-36.173 42.696-58 97.931-58 158.272 0 49.082 14.443 94.785 39.3 133.11z" fill="#494949" data-original="#8d9cdb" class=""/><g><path d="m145 484-.91 1c33.546 17.256 71.59 27 111.91 27s78.364-9.744 111.91-27l-.91-1z" fill="#494949" data-original="#8d9cdb" class=""/></g></g><g><path d="m438.325 54h-364.65l-4.675 1v207h64.899c2.333 36.423 21.745 70.334 52.101 90.969v84.118c0 1.606-1.307 2.913-2.913 2.913h-100.524c17.961 18.01 38.692 33.254 61.526 45h223.821c28.826-14.828 54.32-35.213 75.09-59.728v-370.272z" fill="#f5f8f9" data-original="#f5f8f9" class=""/><g fill="#e8edf2"><path d="m69 55h50v207h-50z" fill="#e8edf2" data-original="#e8edf2" class=""/><path d="m82.553 440c11.136 11.163 23.338 21.262 36.447 30.123v-30.123z" fill="#e8edf2" data-original="#e8edf2" class=""/></g><g><path d="m443 55h-374v-45c0-5.523 4.477-10 10-10h354c5.523 0 10 4.477 10 10z" fill="#26a6fe" data-original="#26a6fe" class=""/></g><g><path d="m129 0h-50c-5.523 0-10 4.477-10 10v45h50v-45c0-5.523 4.477-10 10-10z" fill="#0593fc" data-original="#0593fc"/></g><g><g><g><circle cx="105.5" cy="28.25" fill="#fd8087" r="7.5" data-original="#fd8087" class=""/></g><g><circle cx="129.5" cy="28.25" fill="#fed402" r="7.5" data-original="#fed402"/></g><g><circle cx="153.5" cy="28.25" fill="#97d729" r="7.5" data-original="#97d729" class=""/></g></g><g><g><path d="m414 35.75h-38c-4.143 0-7.5-3.357-7.5-7.5s3.357-7.5 7.5-7.5h38c4.143 0 7.5 3.357 7.5 7.5s-3.357 7.5-7.5 7.5z" fill="#b3dafe" data-original="#b3dafe" class=""/></g></g></g></g><g><path d="m252.825 372.515c-11.022 0-21.695-1.522-31.825-4.358v44.324c0 2.496 2.023 4.519 4.519 4.519h64.962c2.496 0 4.519-2.023 4.519-4.519v-47.752c-13.106 5.024-27.323 7.786-42.175 7.786z" fill="#26a6fe" data-original="#26a6fe" class=""/><path d="m241.336 412.481v-40.526c-6.972-.676-13.768-1.959-20.336-3.798v44.324c0 2.496 2.023 4.519 4.519 4.519h20.336c-2.496 0-4.519-2.023-4.519-4.519z" fill="#0593fc" data-original="#0593fc"/></g></g><g><path d="m228 138.796v-55.078c0-3.71-3.008-6.718-6.718-6.718h-96.565c-3.71 0-6.718 3.008-6.718 6.718v96.565c0 3.71 3.008 6.718 6.718 6.718h31.053c16.836-24.192 42.47-41.817 72.23-48.205z" fill="#97d729" data-original="#97d729" class=""/><g><g><g><path d="m148.229 180.282v-96.564c0-3.71 3.008-6.718 6.718-6.718h-30.229c-3.71 0-6.718 3.008-6.718 6.718v96.565c0 3.71 3.008 6.718 6.718 6.718h30.229c-3.71-.001-6.718-3.009-6.718-6.719z" fill="#8bc727" data-original="#8bc727" class=""/></g></g></g><g><g><g><g><path d="m155.135 165.688 13.253-18.537-.091-.929-12.477-17.453c-.685-.958-2.109-.958-2.794 0l-24.892 34.818c-.812 1.136 0 2.716 1.397 2.716h24.409l1.516-.615z" fill="#d8ecfe" data-original="#d8ecfe"/></g></g></g><path d="m205.378 146.119-17.108-23.93c-.685-.958-2.109-.958-2.794 0l-31.537 44.114h20.141c9.245-8.277 19.794-15.12 31.298-20.184z" fill="#ffffff" data-original="#ffffff" class=""/><g><g><path d="m188.271 122.189c-.685-.958-2.109-.958-2.794 0l-31.537 44.114h17.368l24.25-33.921z" fill="#f5f8f9" data-original="#f5f8f9" class=""/></g></g></g><g><g><g><circle cx="145.205" cy="103.631" fill="#ffffff" r="12.291" data-original="#ffffff" class=""/></g></g></g><g><g><path d="m141.511 103.631c0-5.273 3.327-9.758 7.992-11.502-1.34-.501-2.784-.788-4.298-.788-6.788 0-12.29 5.503-12.29 12.29 0 6.788 5.503 12.291 12.29 12.291 1.514 0 2.959-.287 4.298-.788-4.664-1.745-7.992-6.23-7.992-11.503z" fill="#f5f8f9" data-original="#f5f8f9" class=""/></g></g></g><g><path d="m134.841 261h-81.628c-2.161 0-3.913 1.752-3.913 3.913v172.174c0 2.161 1.752 3.913 3.913 3.913h129.874c2.161 0 3.913-1.752 3.913-3.913v-84.649c-29.824-20.077-50.034-53.383-52.159-91.438z" fill="#fd8087" data-original="#fd8087" class=""/><g><path d="m74.304 437.087v-172.174c0-2.161 1.752-3.913 3.913-3.913h-25.004c-2.161 0-3.913 1.752-3.913 3.913v172.174c0 2.161 1.752 3.913 3.913 3.913h25.004c-2.161 0-3.913-1.752-3.913-3.913z" fill="#fe646f" data-original="#fe646f" class=""/></g><g><path d="m140.654 291.541h-58.226c-4.142 0-7.5 3.357-7.5 7.5s3.358 7.5 7.5 7.5h64.397c-2.386-4.825-4.453-9.833-6.171-15z" fill="#ffffff" data-original="#ffffff" class=""/><path d="m153.001 317.521h-70.573c-4.142 0-7.5 3.357-7.5 7.5s3.358 7.5 7.5 7.5h71.443c3.001 0 5.583-1.767 6.782-4.314-2.74-3.414-5.298-6.979-7.652-10.686z" fill="#ffffff" data-original="#ffffff" class=""/><g><path d="m153.872 358.5h-71.444c-4.142 0-7.5-3.357-7.5-7.5s3.358-7.5 7.5-7.5h71.443c4.142 0 7.5 3.357 7.5 7.5s-3.357 7.5-7.499 7.5z" fill="#ffffff" data-original="#ffffff" class=""/></g><g><path d="m153.872 384.479h-71.444c-4.142 0-7.5-3.357-7.5-7.5s3.358-7.5 7.5-7.5h71.443c4.142 0 7.5 3.357 7.5 7.5s-3.357 7.5-7.499 7.5z" fill="#ffffff" data-original="#ffffff" class=""/></g><g><path d="m126.964 410.459h-44.536c-4.142 0-7.5-3.357-7.5-7.5s3.358-7.5 7.5-7.5h44.536c4.142 0 7.5 3.357 7.5 7.5s-3.358 7.5-7.5 7.5z" fill="#ffffff" data-original="#ffffff" class=""/></g></g></g><g><path d="m348.402 323.754c-7.301 10.025-16.138 18.862-26.163 26.163l25.593 25.593c.399-.725.899-1.409 1.513-2.023l22.627-22.627c.614-.614 1.298-1.114 2.023-1.513z" fill="#7a8ccb" data-original="#7a8ccb" class=""/><g><path d="m476.624 455.511-22.627 22.627c-3.905 3.905-10.237 3.905-14.142 0l-91.217-91.217c-3.905-3.905-3.905-10.237 0-14.142l22.627-22.627c3.905-3.905 10.237-3.905 14.142 0l91.217 91.217c3.905 3.905 3.905 10.237 0 14.142z" fill="#596ca9" data-original="#596ca9" class=""/></g><path d="m381.085 386.922c-3.905-3.905-3.905-10.237 0-14.142l13.475-13.475-9.152-9.152c-3.905-3.905-10.237-3.905-14.142 0l-22.627 22.627c-3.905 3.905-3.905 10.237 0 14.142l91.217 91.217c3.905 3.905 10.237 3.905 14.142 0l9.152-9.152z" fill="#465a94" data-original="#465a94" class=""/><g><path d="m346.493 254c-39.43 0-71.508-32.078-71.508-71.507 0-15.628 5.053-30.09 13.593-41.869-11.287-3.545-23.296-5.46-35.753-5.46-65.819 0-119.175 53.357-119.175 119.175s53.357 119.175 119.175 119.175 119.175-53.356 119.175-119.175c0-1.681-.044-3.351-.113-5.015-7.897 3.012-16.453 4.676-25.394 4.676z" fill="#596ca9" data-original="#596ca9" class=""/><path d="m274.985 182.493c0-3.512.266-6.962.757-10.34-7.296-2.03-14.975-3.139-22.918-3.139-47.124 0-85.325 38.201-85.325 85.325s38.201 85.325 85.325 85.325 85.325-38.201 85.325-85.325c0-.283-.019-.562-.021-.845-35.5-4.157-63.143-34.403-63.143-71.001z" fill="#ffffff" data-original="#ffffff" class=""/><path d="m208.249 292.967c-8.978-10.352-14.424-23.85-14.424-38.628s5.446-28.276 14.424-38.628c11.814-23.207 33.925-40.292 60.326-45.222-5.107-.953-10.366-1.475-15.75-1.475-47.124 0-85.325 38.201-85.325 85.325s38.201 85.325 85.325 85.325c5.384 0 10.643-.522 15.75-1.475-26.401-4.929-48.512-22.015-60.326-45.222z" fill="#f5f8f9" data-original="#f5f8f9" class=""/></g></g><g><path d="m277.335 200.674c-7.467-3.416-15.762-5.335-24.51-5.335-32.585 0-59 26.415-59 59s26.415 59 59 59 59-26.415 59-59c0-3.344-.293-6.619-.827-9.811-16.403-9.421-28.74-25.143-33.663-43.854z" fill="#fed402" data-original="#fed402"/><g><g><path d="m218.408 254.339c0-28.369 20.025-52.053 46.708-57.709-3.966-.841-8.075-1.291-12.292-1.291-32.585 0-59 26.415-59 59s26.415 59 59 59c4.216 0 8.326-.451 12.292-1.291-26.683-5.656-46.708-29.34-46.708-57.709z" fill="#fac600" data-original="#fac600" class=""/></g></g><g><path d="m283.949 217.106-42.141 4.828c-2.94.337-5.157 2.823-5.157 5.782v38.041c3.751 2.49 6.229 6.75 6.229 11.58h.445v-36.983l41.001-4.558v24.919c3.751 2.49 6.229 6.75 6.229 11.58h.445v-44.769c-2.643-3.25-5.004-6.736-7.051-10.42z" fill="#6f3f8a" data-original="#6f3f8a" class=""/><g><g><g><g><g><path d="m228.987 291.676c-7.906 0-14.338-6.432-14.338-14.338s6.432-14.338 14.338-14.338 14.338 6.432 14.338 14.338-6.432 14.338-14.338 14.338z" fill="#814ba2" data-original="#814ba2" class=""/></g></g></g></g></g><g><g><g><path d="m226.36 277.338c0-5.819 3.49-10.829 8.482-13.074-1.79-.805-3.769-1.263-5.855-1.263-7.906 0-14.338 6.432-14.338 14.338s6.432 14.338 14.338 14.338c2.087 0 4.065-.458 5.855-1.263-4.991-2.247-8.482-7.257-8.482-13.076z" fill="#6f3f8a" data-original="#6f3f8a" class=""/></g></g></g><g><g><g><g><g><path d="m276.662 286.634c-7.906 0-14.338-6.432-14.338-14.338s6.432-14.338 14.338-14.338 14.338 6.432 14.338 14.338-6.432 14.338-14.338 14.338z" fill="#814ba2" data-original="#814ba2" class=""/></g></g></g></g></g><g><g><g><path d="m273.018 272.296c0-6.015 3.728-11.168 8.991-13.293-1.654-.668-3.456-1.045-5.347-1.045-7.906 0-14.338 6.432-14.338 14.338s6.432 14.338 14.338 14.338c1.891 0 3.693-.377 5.347-1.045-5.263-2.125-8.991-7.278-8.991-13.293z" fill="#6f3f8a" data-original="#6f3f8a" class=""/></g></g></g></g></g><g><g><circle cx="346.493" cy="182.493" fill="#fd4755" r="72.507" data-original="#fd4755" class=""/></g><path d="m305 182.493c0-34.72 24.41-63.724 57-70.828-4.998-1.089-10.183-1.68-15.507-1.68-40.045 0-72.507 32.463-72.507 72.507s32.462 72.508 72.507 72.508c5.325 0 10.509-.59 15.507-1.68-32.59-7.103-57-36.107-57-70.827z" fill="#fb2b3a" data-original="#fb2b3a" class=""/><g><path d="m379.783 177.978-54.484-26.184c-3.325-1.598-7.179.825-7.179 4.515v52.369c0 3.69 3.853 6.113 7.179 4.515l54.484-26.184c3.786-1.821 3.786-7.212 0-9.031z" fill="#ffffff" data-original="#ffffff" class=""/></g><path d="m339 158.378-13.701-6.584c-3.325-1.598-7.179.825-7.179 4.515v52.369c0 3.689 3.854 6.113 7.179 4.515l13.701-6.586z" fill="#f5f8f9" data-original="#f5f8f9" class=""/></g></g></g></svg>
